<?xml version="1.0" encoding="UTF-8"?>
<svg xmlns="http://www.w3.org/2000/svg" xmlns:xlink="http://www.w3.org/1999/xlink" width="11px" height="11px" viewBox="0 0 11 11" version="1.1">
<g id="surface1">
<path style=" stroke:none;fill-rule:nonzero;fill:rgb(0%,0%,0%);fill-opacity:1;" d="M 2.214844 10.246094 C 1.355469 9.773438 0.695312 9.054688 0.6875 8.125 C 0.6875 7.433594 1.074219 6.839844 1.613281 6.40625 L 2.28125 7.230469 C 1.898438 7.542969 1.746094 7.847656 1.746094 8.125 C 1.738281 8.484375 2.035156 8.933594 2.726562 9.3125 C 3.402344 9.683594 4.394531 9.933594 5.5 9.933594 C 6.605469 9.933594 7.597656 9.683594 8.273438 9.3125 C 8.964844 8.933594 9.261719 8.484375 9.253906 8.125 C 9.257812 7.796875 9.023438 7.40625 8.464844 7.050781 L 8.46875 7.050781 L 9.035156 6.152344 C 9.765625 6.613281 10.308594 7.289062 10.3125 8.125 C 10.304688 9.054688 9.644531 9.773438 8.78125 10.246094 C 7.910156 10.71875 6.761719 10.992188 5.5 10.996094 C 4.238281 10.992188 3.089844 10.71875 2.214844 10.246094 Z M 2.214844 10.246094 "/>
<path style=" stroke:none;fill-rule:nonzero;fill:rgb(0%,0%,0%);fill-opacity:1;" d="M 3.625 9.382812 L 3.625 8.320312 L 7.835938 8.320312 L 7.835938 9.382812 Z M 3.625 9.382812 "/>
<path style=" stroke:none;fill-rule:nonzero;fill:rgb(0%,0%,0%);fill-opacity:1;" d="M 3.199219 7.648438 L 3.199219 6.375 L 7.410156 6.375 L 7.410156 7.648438 Z M 3.199219 7.648438 "/>
<path style=" stroke:none;fill-rule:nonzero;fill:rgb(0%,0%,0%);fill-opacity:1;" d="M 3.765625 5.773438 L 3.765625 4.5 L 7.800781 4.5 L 7.800781 5.773438 Z M 3.765625 5.773438 "/>
<path style=" stroke:none;fill-rule:nonzero;fill:rgb(0%,0%,0%);fill-opacity:1;" d="M 4.898438 3.472656 L 4.898438 2.199219 L 8.648438 2.199219 L 8.648438 3.472656 Z M 4.898438 3.472656 "/>
<path style=" stroke:none;fill-rule:nonzero;fill:rgb(0%,0%,0%);fill-opacity:1;" d="M 6.066406 1.277344 L 6.066406 0.00390625 L 9.78125 0.00390625 L 9.78125 1.277344 Z M 6.066406 1.277344 "/>
</g>
</svg>
