<?xml version="1.0" encoding="UTF-8"?>
<svg xmlns="http://www.w3.org/2000/svg" xmlns:xlink="http://www.w3.org/1999/xlink" width="11px" height="11px" viewBox="0 0 11 11" version="1.1">
<g id="surface1">
<path style=" stroke:none;fill-rule:nonzero;fill:rgb(0%,0%,0%);fill-opacity:1;" d="M 5.5 0.0117188 C 2.46875 0.0117188 0.0117188 2.46875 0.0117188 5.5 C 0.0117188 8.53125 2.46875 10.988281 5.5 10.988281 C 8.53125 10.988281 10.988281 8.53125 10.988281 5.5 C 10.988281 2.46875 8.53125 0.0117188 5.5 0.0117188 Z M 8.902344 8.902344 C 8.03125 9.773438 6.828125 10.3125 5.5 10.3125 C 4.167969 10.3125 2.96875 9.773438 2.097656 8.902344 C 1.226562 8.03125 0.6875 6.828125 0.6875 5.5 C 0.6875 4.171875 1.226562 2.96875 2.097656 2.097656 C 2.96875 1.226562 4.167969 0.6875 5.5 0.6875 C 6.828125 0.6875 8.03125 1.226562 8.902344 2.097656 C 9.773438 2.96875 10.3125 4.171875 10.3125 5.5 C 10.3125 6.828125 9.773438 8.03125 8.902344 8.902344 Z M 6.109375 2.78125 L 4.890625 2.78125 L 4.890625 5.027344 L 2.707031 5.027344 L 2.707031 6.246094 L 4.890625 6.246094 L 4.890625 8.21875 L 6.109375 8.21875 L 6.109375 6.246094 L 8.292969 6.246094 L 8.292969 5.027344 L 6.109375 5.027344 Z M 6.109375 2.78125 "/>
</g>
</svg>
