<?xml version="1.0" encoding="UTF-8"?>
<svg xmlns="http://www.w3.org/2000/svg" xmlns:xlink="http://www.w3.org/1999/xlink" width="11px" height="11px" viewBox="0 0 11 11" version="1.1">
<g id="surface1">
<path style=" stroke:none;fill-rule:nonzero;fill:rgb(0%,0%,0%);fill-opacity:1;" d="M 2.207031 10.203125 C 1.339844 9.707031 0.6875 8.949219 0.679688 7.988281 C 0.679688 7.273438 1.058594 6.652344 1.601562 6.195312 L 2.324219 7.042969 C 1.949219 7.367188 1.792969 7.6875 1.792969 7.988281 C 1.785156 8.382812 2.082031 8.847656 2.761719 9.238281 C 3.425781 9.625 4.410156 9.882812 5.5 9.882812 C 6.589844 9.882812 7.574219 9.625 8.238281 9.238281 C 8.917969 8.847656 9.214844 8.382812 9.210938 7.988281 C 9.210938 7.628906 8.976562 7.226562 8.429688 6.855469 L 9.046875 5.929688 C 9.777344 6.417969 10.316406 7.128906 10.320312 7.988281 C 10.3125 8.949219 9.660156 9.707031 8.792969 10.203125 C 7.914062 10.707031 6.765625 10.992188 5.5 10.996094 C 4.234375 10.992188 3.085938 10.707031 2.207031 10.203125 Z M 8.429688 6.855469 Z M 8.429688 6.855469 "/>
<path style=" stroke:none;fill-rule:nonzero;fill:rgb(0%,0%,0%);fill-opacity:1;" d="M 2.140625 5.910156 C 2.140625 5.910156 2.171875 5.871094 2.21875 5.789062 C 2.269531 5.707031 2.335938 5.59375 2.398438 5.464844 C 2.53125 5.207031 2.644531 4.875 2.640625 4.695312 C 2.640625 4.695312 2.636719 4.660156 2.597656 4.589844 C 2.558594 4.515625 2.492188 4.421875 2.410156 4.308594 C 2.257812 4.085938 2.023438 3.796875 2.015625 3.351562 C 2.019531 2.917969 2.175781 2.5 2.3125 2.152344 C 2.457031 1.8125 2.59375 1.558594 2.597656 1.550781 L 2.601562 1.550781 L 3.378906 1.980469 C 3.378906 1.980469 3.351562 2.027344 3.304688 2.121094 C 3.257812 2.214844 3.195312 2.347656 3.136719 2.492188 C 3.011719 2.785156 2.902344 3.160156 2.90625 3.351562 C 2.894531 3.410156 2.976562 3.578125 3.136719 3.792969 C 3.277344 4.011719 3.511719 4.257812 3.53125 4.695312 C 3.523438 5.140625 3.351562 5.542969 3.195312 5.863281 C 3.035156 6.179688 2.882812 6.402344 2.875 6.414062 Z M 2.140625 5.910156 "/>
<path style=" stroke:none;fill-rule:nonzero;fill:rgb(0%,0%,0%);fill-opacity:1;" d="M 7.292969 6.03125 C 7.292969 6.03125 7.320312 5.984375 7.367188 5.894531 C 7.417969 5.804688 7.480469 5.675781 7.542969 5.53125 C 7.671875 5.246094 7.789062 4.882812 7.78125 4.695312 C 7.78125 4.695312 7.78125 4.660156 7.738281 4.589844 C 7.703125 4.515625 7.632812 4.417969 7.554688 4.308594 C 7.402344 4.085938 7.167969 3.796875 7.15625 3.351562 C 7.164062 2.917969 7.316406 2.5 7.457031 2.152344 C 7.597656 1.8125 7.738281 1.558594 7.742188 1.550781 L 8.519531 1.980469 C 8.519531 1.980469 8.492188 2.027344 8.445312 2.121094 C 8.402344 2.214844 8.339844 2.347656 8.277344 2.492188 C 8.152344 2.785156 8.042969 3.160156 8.046875 3.351562 C 8.039062 3.410156 8.117188 3.578125 8.277344 3.792969 C 8.417969 4.007812 8.65625 4.257812 8.671875 4.695312 C 8.667969 5.136719 8.503906 5.550781 8.359375 5.890625 C 8.207031 6.230469 8.0625 6.472656 8.058594 6.484375 Z M 7.292969 6.03125 "/>
<path style=" stroke:none;fill-rule:nonzero;fill:rgb(0%,0%,0%);fill-opacity:1;" d="M 4.652344 5.832031 C 4.652344 5.832031 4.671875 5.785156 4.710938 5.691406 C 4.746094 5.597656 4.796875 5.460938 4.847656 5.304688 C 4.949219 4.984375 5.042969 4.570312 5.042969 4.21875 C 5.050781 4.085938 4.945312 3.847656 4.78125 3.546875 C 4.625 3.242188 4.421875 2.871094 4.417969 2.386719 C 4.425781 1.835938 4.632812 1.273438 4.832031 0.8125 C 5.027344 0.351562 5.222656 0.015625 5.230469 0.00390625 L 6 0.449219 C 6 0.449219 5.957031 0.519531 5.890625 0.648438 C 5.824219 0.777344 5.734375 0.960938 5.648438 1.164062 C 5.46875 1.570312 5.304688 2.085938 5.308594 2.386719 C 5.304688 2.589844 5.414062 2.835938 5.570312 3.132812 C 5.71875 3.425781 5.925781 3.761719 5.933594 4.21875 C 5.925781 5.210938 5.46875 6.171875 5.460938 6.203125 Z M 4.652344 5.832031 "/>
</g>
</svg>
