<?xml version="1.0" encoding="UTF-8"?>
<svg xmlns="http://www.w3.org/2000/svg" xmlns:xlink="http://www.w3.org/1999/xlink" width="11px" height="11px" viewBox="0 0 11 11" version="1.1">
<g id="surface1">
<path style=" stroke:none;fill-rule:nonzero;fill:rgb(0%,0%,0%);fill-opacity:1;" d="M 9.265625 0.878906 C 9.265625 0.878906 7.632812 0.433594 6.375 0.75 C 5.101562 1.074219 4.574219 1.988281 4.484375 2.085938 C 4.234375 2.007812 3.78125 1.773438 3.273438 1.773438 C 2.863281 1.773438 2.339844 1.828125 1.847656 2.023438 C 0.410156 2.585938 0.0078125 3.59375 0.0078125 3.59375 L 1.800781 10.363281 C 1.800781 10.363281 3.40625 9.078125 3.976562 8.851562 C 4.699219 8.570312 6.414062 8.96875 6.414062 8.96875 C 6.414062 8.96875 6.417969 8.964844 6.421875 8.960938 C 6.421875 8.960938 7.757812 7.730469 8.199219 7.589844 C 8.691406 7.429688 10.992188 7.714844 10.992188 7.714844 Z M 5.441406 7.957031 C 5.265625 7.945312 5.0625 7.9375 4.855469 7.9375 C 4.554688 7.9375 4.242188 7.953125 3.945312 8.007812 C 3.472656 8.105469 2.984375 8.519531 2.5625 8.777344 C 2.484375 8.824219 2.410156 8.875 2.339844 8.917969 L 0.976562 3.832031 C 1.128906 3.628906 1.476562 3.09375 2.183594 2.816406 C 2.554688 2.671875 3.003906 2.609375 3.328125 2.609375 C 3.648438 2.609375 3.875 2.714844 4.070312 2.765625 C 4.074219 2.765625 4.078125 2.765625 4.082031 2.765625 L 5.03125 6.289062 Z M 7.753906 6.804688 C 7.296875 7.03125 6.429688 7.824219 6.375 7.863281 L 5.886719 6.054688 L 5.039062 2.621094 C 5.316406 2.296875 5.8125 1.628906 6.613281 1.515625 C 6.984375 1.457031 8.347656 1.558594 8.535156 1.589844 C 8.550781 1.59375 8.5625 1.597656 8.578125 1.597656 L 9.902344 6.757812 C 9.339844 6.71875 8.007812 6.675781 7.753906 6.804688 Z M 7.753906 6.804688 "/>
</g>
</svg>
