<?xml version="1.0" encoding="UTF-8"?>
<svg xmlns="http://www.w3.org/2000/svg" xmlns:xlink="http://www.w3.org/1999/xlink" width="11px" height="14px" viewBox="0 0 11 14" version="1.1">
<g id="surface1">
<path style=" stroke:none;fill-rule:nonzero;fill:rgb(0%,0%,0%);fill-opacity:1;" d="M 5.496094 5.859375 C 4.847656 5.859375 4.328125 6.375 4.328125 7.007812 C 4.328125 7.644531 4.847656 8.15625 5.496094 8.15625 C 6.140625 8.15625 6.664062 7.644531 6.664062 7.007812 C 6.664062 6.375 6.140625 5.859375 5.496094 5.859375 Z M 10.699219 7.441406 C 10.699219 6.574219 10.699219 6.574219 10.699219 6.574219 C 8.839844 6.574219 8.839844 6.574219 8.839844 6.574219 C 8.761719 5.984375 8.523438 5.441406 8.171875 4.988281 C 9.488281 3.699219 9.488281 3.699219 9.488281 3.699219 C 8.867188 3.085938 8.867188 3.085938 8.867188 3.085938 C 7.550781 4.375 7.550781 4.375 7.550781 4.375 C 7.089844 4.03125 6.539062 3.796875 5.9375 3.722656 C 5.9375 1.890625 5.9375 1.890625 5.9375 1.890625 C 5.054688 1.890625 5.054688 1.890625 5.054688 1.890625 C 5.054688 3.722656 5.054688 3.722656 5.054688 3.722656 C 4.40625 3.804688 3.820312 4.066406 3.34375 4.453125 C 2.125 3.257812 2.125 3.257812 2.125 3.257812 C 1.5 3.871094 1.5 3.871094 1.5 3.871094 C 2.742188 5.089844 2.742188 5.089844 2.742188 5.089844 C 2.429688 5.519531 2.222656 6.027344 2.148438 6.574219 C 0.289062 6.574219 0.289062 6.574219 0.289062 6.574219 C 0.289062 7.441406 0.289062 7.441406 0.289062 7.441406 C 2.148438 7.441406 2.148438 7.441406 2.148438 7.441406 C 2.230469 8.035156 2.46875 8.578125 2.816406 9.027344 C 1.5 10.324219 1.5 10.324219 1.5 10.324219 C 2.125 10.9375 2.125 10.9375 2.125 10.9375 C 3.441406 9.644531 3.441406 9.644531 3.441406 9.644531 C 3.898438 9.992188 4.453125 10.222656 5.054688 10.300781 C 5.054688 12.128906 5.054688 12.128906 5.054688 12.128906 C 5.9375 12.128906 5.9375 12.128906 5.9375 12.128906 C 5.9375 10.300781 5.9375 10.300781 5.9375 10.300781 C 6.492188 10.230469 7.011719 10.023438 7.445312 9.71875 C 8.867188 11.109375 8.867188 11.109375 8.867188 11.109375 C 9.484375 10.496094 9.484375 10.496094 9.484375 10.496094 C 8.09375 9.125 8.09375 9.125 8.09375 9.125 C 8.488281 8.65625 8.757812 8.078125 8.839844 7.441406 Z M 5.496094 9.460938 C 4.117188 9.457031 3.007812 8.367188 3 7.007812 C 3.007812 5.65625 4.117188 4.5625 5.496094 4.5625 C 6.871094 4.5625 7.984375 5.65625 7.988281 7.007812 C 7.984375 8.367188 6.871094 9.457031 5.496094 9.460938 Z M 5.496094 9.460938 "/>
</g>
</svg>
