<?xml version="1.0" encoding="UTF-8"?>
<svg xmlns="http://www.w3.org/2000/svg" xmlns:xlink="http://www.w3.org/1999/xlink" width="11px" height="11px" viewBox="0 0 11 11" version="1.1">
<g id="surface1">
<path style=" stroke:none;fill-rule:nonzero;fill:rgb(0%,0%,0%);fill-opacity:1;" d="M 10.996094 4.996094 L 10.996094 3.871094 L 10.148438 3.871094 L 5.417969 0.726562 L 0.796875 3.871094 L 0.00390625 3.871094 L 0.00390625 4.996094 L 0.734375 4.996094 L 0.734375 9.152344 L 0.00390625 9.152344 L 0.00390625 10.273438 L 10.996094 10.273438 L 10.996094 9.152344 L 10.175781 9.152344 L 10.175781 4.996094 Z M 5.425781 2.078125 L 8.121094 3.871094 L 2.792969 3.871094 Z M 6.28125 4.996094 L 6.28125 9.152344 L 4.628906 9.152344 L 4.628906 4.996094 Z M 1.855469 4.996094 L 3.507812 4.996094 L 3.507812 9.152344 L 1.855469 9.152344 Z M 9.054688 9.152344 L 7.402344 9.152344 L 7.402344 4.996094 L 9.054688 4.996094 Z M 9.054688 9.152344 "/>
</g>
</svg>
