<?xml version="1.0" encoding="UTF-8"?>
<svg xmlns="http://www.w3.org/2000/svg" xmlns:xlink="http://www.w3.org/1999/xlink" width="11px" height="11px" viewBox="0 0 11 11" version="1.1">
<g id="surface1">
<path style=" stroke:none;fill-rule:nonzero;fill:rgb(0%,0%,0%);fill-opacity:1;" d="M 6.296875 3.675781 L 6.296875 0.0078125 L 4.703125 0.0078125 L 4.703125 3.675781 C 3.042969 4.042969 1.796875 5.519531 1.796875 7.292969 C 1.796875 9.335938 3.457031 10.992188 5.5 10.992188 C 7.546875 10.992188 9.203125 9.335938 9.203125 7.292969 C 9.203125 5.519531 7.957031 4.042969 6.296875 3.675781 Z M 5.5 9.71875 C 4.160156 9.71875 3.074219 8.632812 3.070312 7.292969 C 3.074219 5.949219 4.160156 4.867188 5.5 4.863281 C 6.839844 4.867188 7.925781 5.949219 7.929688 7.292969 C 7.925781 8.632812 6.839844 9.71875 5.5 9.71875 Z M 5.5 9.71875 "/>
</g>
</svg>
