<?xml version="1.0" encoding="UTF-8"?>
<svg xmlns="http://www.w3.org/2000/svg" xmlns:xlink="http://www.w3.org/1999/xlink" width="11px" height="11px" viewBox="0 0 11 11" version="1.1">
<g id="surface1">
<path style=" stroke:none;fill-rule:nonzero;fill:rgb(0%,0%,0%);fill-opacity:1;" d="M 7.40625 0.238281 C 6.761719 0.238281 6.148438 0.375 5.59375 0.621094 C 5.039062 0.375 4.421875 0.238281 3.777344 0.238281 C 2.195312 0.238281 0.804688 1.054688 0.00390625 2.289062 L 0.796875 2.804688 C 1.429688 1.828125 2.527344 1.183594 3.777344 1.183594 C 4.039062 1.183594 4.296875 1.214844 4.542969 1.269531 C 4.191406 1.5625 3.882812 1.90625 3.632812 2.289062 L 4.429688 2.804688 C 4.578125 2.570312 4.757812 2.359375 4.960938 2.167969 L 4.960938 10.761719 L 9.296875 10.761719 L 9.296875 9.582031 L 6.144531 9.582031 L 6.144531 2.089844 C 6.316406 2.242188 6.472656 2.410156 6.609375 2.59375 L 7.367188 2.027344 C 7.15625 1.746094 6.910156 1.492188 6.640625 1.269531 C 6.886719 1.214844 7.144531 1.183594 7.40625 1.183594 C 8.566406 1.183594 9.59375 1.738281 10.242188 2.59375 L 10.996094 2.027344 C 10.179688 0.941406 8.875 0.238281 7.40625 0.238281 Z M 7.40625 0.238281 "/>
</g>
</svg>
