<?xml version="1.0" encoding="UTF-8"?>
<svg xmlns="http://www.w3.org/2000/svg" xmlns:xlink="http://www.w3.org/1999/xlink" width="11px" height="11px" viewBox="0 0 11 11" version="1.1">
<g id="surface1">
<path style=" stroke:none;fill-rule:nonzero;fill:rgb(0%,0%,0%);fill-opacity:1;" d="M 5.5 0.0117188 C 2.46875 0.0117188 0.0117188 2.46875 0.0117188 5.5 C 0.0117188 8.53125 2.46875 10.988281 5.5 10.988281 C 8.53125 10.988281 10.988281 8.53125 10.988281 5.5 C 10.988281 2.46875 8.53125 0.0117188 5.5 0.0117188 Z M 6.335938 5.5 L 8.933594 2.902344 C 9.480469 3.625 9.804688 4.523438 9.804688 5.5 C 9.804688 6.476562 9.480469 7.375 8.933594 8.097656 Z M 8.097656 2.066406 L 5.5 4.664062 L 2.902344 2.066406 C 3.625 1.519531 4.523438 1.195312 5.5 1.195312 C 6.476562 1.195312 7.375 1.519531 8.097656 2.066406 Z M 2.066406 2.902344 L 4.664062 5.5 L 2.066406 8.097656 C 1.519531 7.375 1.195312 6.476562 1.195312 5.5 C 1.195312 4.523438 1.519531 3.625 2.066406 2.902344 Z M 2.902344 8.933594 L 5.5 6.335938 L 8.097656 8.933594 C 7.375 9.480469 6.476562 9.804688 5.5 9.804688 C 4.523438 9.804688 3.625 9.480469 2.902344 8.933594 Z M 2.902344 8.933594 "/>
</g>
</svg>
