<?xml version="1.0" encoding="UTF-8"?>
<svg xmlns="http://www.w3.org/2000/svg" xmlns:xlink="http://www.w3.org/1999/xlink" width="11px" height="11px" viewBox="0 0 11 11" version="1.1">
<g id="surface1">
<path style=" stroke:none;fill-rule:nonzero;fill:rgb(0%,0%,0%);fill-opacity:1;" d="M 5.496094 0.015625 C 2.464844 0.015625 0.0078125 2.472656 0.0078125 5.503906 C 0.0078125 8.535156 2.464844 10.992188 5.496094 10.992188 C 8.53125 10.992188 10.988281 8.535156 10.988281 5.503906 C 10.988281 2.472656 8.53125 0.015625 5.496094 0.015625 Z M 1.339844 4.75 C 1.410156 4.363281 1.53125 3.996094 1.699219 3.652344 L 9.296875 3.652344 C 9.464844 3.996094 9.585938 4.363281 9.65625 4.75 Z M 8.351562 2.386719 L 2.644531 2.386719 C 3.398438 1.699219 4.394531 1.277344 5.496094 1.277344 C 6.601562 1.277344 7.597656 1.699219 8.351562 2.386719 Z M 1.304688 6.015625 L 4.867188 6.015625 L 4.867188 9.683594 C 3.953125 9.546875 3.136719 9.117188 2.507812 8.492188 C 1.855469 7.839844 1.417969 6.976562 1.304688 6.015625 Z M 8.484375 8.492188 C 7.859375 9.117188 7.042969 9.546875 6.128906 9.683594 L 6.128906 6.015625 L 9.691406 6.015625 C 9.574219 6.976562 9.136719 7.839844 8.484375 8.492188 Z M 8.484375 8.492188 "/>
</g>
</svg>
