<?xml version="1.0" encoding="UTF-8"?>
<svg xmlns="http://www.w3.org/2000/svg" xmlns:xlink="http://www.w3.org/1999/xlink" width="11px" height="11px" viewBox="0 0 11 11" version="1.1">
<g id="surface1">
<path style=" stroke:none;fill-rule:nonzero;fill:rgb(26.274511%,41.960785%,98.823529%);fill-opacity:1;" d="M 10.703125 1.757812 C 10.140625 0.558594 8.371094 0.0820312 5.714844 0.0351562 L 5.714844 0.03125 C 5.640625 0.03125 5.570312 0.03125 5.5 0.03125 C 5.429688 0.03125 5.359375 0.03125 5.285156 0.03125 L 5.285156 0.0351562 C 2.628906 0.0820312 0.859375 0.558594 0.296875 1.757812 C -0.230469 2.875 0.015625 4.628906 0.578125 5.726562 C 1.09375 6.742188 1.746094 7.757812 2.320312 8.523438 C 3.210938 9.710938 3.804688 10.242188 4.175781 10.53125 C 4.453125 10.753906 4.945312 10.9375 5.441406 10.964844 L 5.441406 10.96875 C 5.460938 10.96875 5.480469 10.96875 5.5 10.96875 C 5.519531 10.96875 5.539062 10.96875 5.558594 10.96875 L 5.558594 10.964844 C 6.054688 10.9375 6.546875 10.753906 6.824219 10.53125 C 7.195312 10.242188 7.789062 9.710938 8.679688 8.523438 C 9.253906 7.757812 9.90625 6.742188 10.421875 5.726562 C 10.984375 4.628906 11.230469 2.875 10.703125 1.757812 Z M 10.703125 1.757812 "/>
</g>
</svg>
