<?xml version="1.0" encoding="UTF-8"?>
<svg xmlns="http://www.w3.org/2000/svg" xmlns:xlink="http://www.w3.org/1999/xlink" width="11px" height="11px" viewBox="0 0 11 11" version="1.1">
<g id="surface1">
<path style=" stroke:none;fill-rule:nonzero;fill:rgb(0%,0%,0%);fill-opacity:1;" d="M 6.628906 5.320312 L 10.050781 6.1875 L 10.226562 5.488281 L 6.769531 4.609375 C 6.765625 3.621094 5.960938 2.820312 4.972656 2.820312 C 4.882812 2.820312 4.792969 2.828125 4.703125 2.84375 L 3.90625 0.0117188 L 3.210938 0.207031 L 4.023438 3.09375 C 3.515625 3.410156 3.171875 3.972656 3.171875 4.617188 C 3.171875 4.820312 3.210938 5.015625 3.269531 5.199219 L 0.773438 7.695312 L 1.285156 8.207031 L 3.652344 5.839844 C 3.90625 6.109375 4.234375 6.304688 4.609375 6.378906 L 4.609375 10.265625 L 2.660156 10.265625 L 2.660156 10.988281 L 7.285156 10.988281 L 7.285156 10.265625 L 5.332031 10.265625 L 5.332031 6.378906 C 5.917969 6.261719 6.398438 5.859375 6.628906 5.320312 Z M 3.898438 4.617188 C 3.898438 4.023438 4.378906 3.542969 4.972656 3.542969 C 5.566406 3.542969 6.046875 4.023438 6.046875 4.617188 C 6.046875 5.210938 5.566406 5.691406 4.972656 5.691406 C 4.378906 5.691406 3.898438 5.210938 3.898438 4.617188 Z M 3.898438 4.617188 "/>
</g>
</svg>
