<?xml version="1.0" encoding="UTF-8"?>
<svg xmlns="http://www.w3.org/2000/svg" xmlns:xlink="http://www.w3.org/1999/xlink" width="11px" height="11px" viewBox="0 0 11 11" version="1.1">
<g id="surface1">
<path style=" stroke:none;fill-rule:nonzero;fill:rgb(0%,0%,0%);fill-opacity:1;" d="M 7.421875 8.152344 C 8.011719 7.429688 8.367188 6.507812 8.371094 5.5 C 8.367188 3.191406 6.496094 1.320312 4.1875 1.316406 C 1.878906 1.320312 0.00390625 3.191406 0.00390625 5.5 C 0.00390625 7.808594 1.878906 9.683594 4.1875 9.683594 C 4.242188 9.683594 4.292969 9.675781 4.347656 9.675781 L 4.335938 9.683594 L 10.996094 9.683594 L 10.996094 8.152344 Z M 1.230469 5.5 C 1.230469 3.867188 2.554688 2.546875 4.1875 2.542969 C 5.820312 2.546875 7.140625 3.867188 7.144531 5.5 C 7.140625 7.132812 5.820312 8.457031 4.1875 8.457031 C 2.554688 8.457031 1.230469 7.132812 1.230469 5.5 Z M 1.230469 5.5 "/>
</g>
</svg>
