<?xml version="1.0" encoding="UTF-8"?>
<svg xmlns="http://www.w3.org/2000/svg" xmlns:xlink="http://www.w3.org/1999/xlink" width="11px" height="11px" viewBox="0 0 11 11" version="1.1">
<g id="surface1">
<path style=" stroke:none;fill-rule:nonzero;fill:rgb(0%,0%,0%);fill-opacity:1;" d="M 4.800781 1.414062 L 5.90625 3.402344 L 7.332031 0.878906 L 8.472656 3.472656 L 9.902344 0.464844 L 9.546875 0.296875 L 8.488281 2.527344 L 7.375 0.0078125 L 5.910156 2.597656 L 4.800781 0.609375 L 4.800781 0.148438 L 4.148438 0.148438 L 4.148438 5.839844 L 4.167969 5.839844 L 1.097656 10.992188 L 7.851562 10.992188 L 7.675781 10.699219 L 4.78125 5.839844 L 4.800781 5.839844 Z M 7.164062 10.601562 L 1.789062 10.601562 L 4.476562 6.09375 Z M 3.789062 9.089844 C 3.789062 9.492188 4.117188 9.820312 4.519531 9.820312 C 4.921875 9.820312 5.25 9.492188 5.25 9.089844 C 5.25 8.6875 4.921875 8.359375 4.519531 8.359375 C 4.117188 8.359375 3.789062 8.6875 3.789062 9.089844 Z M 3.789062 9.089844 "/>
</g>
</svg>
