<?xml version="1.0" encoding="UTF-8"?>
<svg xmlns="http://www.w3.org/2000/svg" xmlns:xlink="http://www.w3.org/1999/xlink" width="11px" height="11px" viewBox="0 0 11 11" version="1.1">
<g id="surface1">
<path style=" stroke:none;fill-rule:nonzero;fill:rgb(0%,0%,0%);fill-opacity:1;" d="M 10.144531 4.421875 L 10.144531 2.460938 L 8.867188 1.523438 L 9.382812 0.734375 L 8.277344 0.0078125 L 7.796875 0.742188 L 7.046875 0.191406 L 6.113281 1.476562 L 6.925781 2.070312 L 5.5 4.25 L 4.074219 2.070312 L 4.886719 1.476562 L 3.953125 0.191406 L 3.203125 0.742188 L 2.722656 0.0078125 L 1.617188 0.734375 L 2.132812 1.523438 L 0.855469 2.460938 L 0.855469 4.421875 L 3.003906 2.851562 L 4.707031 5.457031 L 1.558594 10.265625 L 2.667969 10.992188 L 5.5 6.664062 L 8.332031 10.992188 L 9.441406 10.265625 L 6.292969 5.457031 L 7.996094 2.851562 Z M 10.144531 4.421875 "/>
</g>
</svg>
