<?xml version="1.0" encoding="UTF-8"?>
<svg xmlns="http://www.w3.org/2000/svg" xmlns:xlink="http://www.w3.org/1999/xlink" width="11px" height="11px" viewBox="0 0 11 11" version="1.1">
<g id="surface1">
<path style=" stroke:none;fill-rule:nonzero;fill:rgb(0%,0%,0%);fill-opacity:1;" d="M 3.433594 8.773438 C 3.433594 9.722656 2.664062 10.492188 1.71875 10.492188 C 0.769531 10.492188 0.00390625 9.722656 0.00390625 8.773438 C 0.00390625 7.828125 0.769531 7.058594 1.71875 7.058594 C 2.664062 7.058594 3.433594 7.828125 3.433594 8.773438 Z M 3.433594 8.773438 "/>
<path style=" stroke:none;fill-rule:nonzero;fill:rgb(0%,0%,0%);fill-opacity:1;" d="M 10.996094 8.773438 C 10.996094 9.722656 10.230469 10.492188 9.28125 10.492188 C 8.335938 10.492188 7.566406 9.722656 7.566406 8.773438 C 7.566406 7.828125 8.335938 7.058594 9.28125 7.058594 C 10.230469 7.058594 10.996094 7.828125 10.996094 8.773438 Z M 10.996094 8.773438 "/>
<path style=" stroke:none;fill-rule:nonzero;fill:rgb(0%,0%,0%);fill-opacity:1;" d="M 7.214844 2.226562 C 7.214844 3.171875 6.445312 3.941406 5.5 3.941406 C 4.550781 3.941406 3.785156 3.171875 3.785156 2.226562 C 3.785156 1.277344 4.550781 0.507812 5.5 0.507812 C 6.445312 0.507812 7.214844 1.277344 7.214844 2.226562 Z M 7.214844 2.226562 "/>
</g>
</svg>
