<?xml version="1.0" encoding="UTF-8"?>
<svg xmlns="http://www.w3.org/2000/svg" xmlns:xlink="http://www.w3.org/1999/xlink" width="11px" height="11px" viewBox="0 0 11 11" version="1.1">
<g id="surface1">
<path style=" stroke:none;fill-rule:nonzero;fill:rgb(0%,0%,0%);fill-opacity:1;" d="M 9.683594 5.246094 L 10.320312 5.761719 L 10.996094 4.925781 L 5.671875 0.632812 L 0.00390625 4.914062 L 0.652344 5.773438 L 1.304688 5.28125 L 1.304688 9.292969 L 0.289062 9.292969 L 0.289062 10.367188 L 10.695312 10.367188 L 10.695312 9.292969 L 9.683594 9.292969 Z M 2.3125 4.519531 L 5.652344 1.996094 L 8.605469 4.378906 L 8.605469 9.292969 L 7.28125 9.292969 L 7.28125 5.050781 C 7.277344 4.113281 6.542969 3.332031 5.597656 3.328125 C 4.65625 3.332031 3.917969 4.113281 3.917969 5.050781 L 3.917969 6.097656 L 4.992188 6.097656 L 4.992188 5.050781 C 4.992188 4.679688 5.277344 4.402344 5.597656 4.402344 C 5.921875 4.402344 6.203125 4.679688 6.207031 5.050781 L 6.207031 9.292969 L 2.378906 9.292969 L 2.378906 4.519531 Z M 2.3125 4.519531 "/>
</g>
</svg>
