<?xml version="1.0" encoding="UTF-8"?>
<svg xmlns="http://www.w3.org/2000/svg" xmlns:xlink="http://www.w3.org/1999/xlink" width="11px" height="11px" viewBox="0 0 11 11" version="1.1">
<g id="surface1">
<path style=" stroke:none;fill-rule:nonzero;fill:rgb(0%,0%,0%);fill-opacity:1;" d="M 0.015625 5.5 C 0.015625 2.46875 2.472656 0.0078125 5.507812 0.0078125 C 8.542969 0.0078125 11 2.46875 11 5.5 C 11 8.535156 8.542969 10.992188 5.507812 10.992188 C 2.472656 10.992188 0.015625 8.535156 0.015625 5.5 Z M 2.460938 2.453125 C 1.679688 3.234375 1.199219 4.308594 1.199219 5.5 C 1.199219 6.691406 1.679688 7.765625 2.460938 8.546875 C 3.242188 9.328125 4.316406 9.808594 5.507812 9.808594 C 6.699219 9.808594 7.773438 9.328125 8.554688 8.546875 C 9.335938 7.765625 9.816406 6.691406 9.816406 5.5 C 9.816406 4.308594 9.335938 3.234375 8.554688 2.453125 C 7.773438 1.671875 6.699219 1.191406 5.507812 1.191406 C 4.316406 1.191406 3.242188 1.671875 2.460938 2.453125 Z M 2.460938 2.453125 "/>
</g>
</svg>
