<?xml version="1.0" encoding="UTF-8"?>
<svg xmlns="http://www.w3.org/2000/svg" xmlns:xlink="http://www.w3.org/1999/xlink" width="11px" height="11px" viewBox="0 0 11 11" version="1.1">
<g id="surface1">
<path style=" stroke:none;fill-rule:nonzero;fill:rgb(0%,0%,0%);fill-opacity:1;" d="M 0.0078125 5.503906 C 0.0078125 2.46875 2.464844 0.0117188 5.496094 0.0117188 C 8.53125 0.0117188 10.988281 2.46875 10.988281 5.503906 C 10.988281 8.535156 8.53125 10.992188 5.496094 10.992188 C 2.464844 10.992188 0.0078125 8.535156 0.0078125 5.503906 Z M 2.179688 2.1875 C 1.332031 3.035156 0.808594 4.207031 0.808594 5.503906 C 0.808594 6.800781 1.332031 7.96875 2.179688 8.820312 C 3.03125 9.667969 4.199219 10.191406 5.496094 10.191406 C 6.792969 10.191406 7.964844 9.667969 8.8125 8.820312 C 9.664062 7.96875 10.1875 6.800781 10.1875 5.503906 C 10.1875 4.207031 9.664062 3.035156 8.8125 2.1875 C 7.964844 1.335938 6.792969 0.8125 5.496094 0.8125 C 4.199219 0.8125 3.03125 1.335938 2.179688 2.1875 Z M 2.179688 2.1875 "/>
<path style=" stroke:none;fill-rule:nonzero;fill:rgb(0%,0%,0%);fill-opacity:1;" d="M 2.125 5.503906 C 2.125 3.640625 3.632812 2.128906 5.496094 2.128906 C 7.359375 2.128906 8.871094 3.640625 8.871094 5.503906 C 8.871094 7.367188 7.359375 8.875 5.496094 8.875 C 3.632812 8.875 2.125 7.367188 2.125 5.503906 Z M 3.488281 3.496094 C 2.976562 4.011719 2.660156 4.71875 2.660156 5.503906 C 2.660156 6.289062 2.976562 6.996094 3.488281 7.511719 C 4.003906 8.023438 4.710938 8.339844 5.496094 8.339844 C 6.28125 8.339844 6.988281 8.023438 7.503906 7.511719 C 8.019531 6.996094 8.335938 6.289062 8.335938 5.503906 C 8.335938 4.71875 8.019531 4.011719 7.503906 3.496094 C 6.988281 2.980469 6.28125 2.664062 5.496094 2.664062 C 4.710938 2.664062 4.003906 2.980469 3.488281 3.496094 Z M 3.488281 3.496094 "/>
</g>
</svg>
