<?xml version="1.0" encoding="UTF-8"?>
<svg xmlns="http://www.w3.org/2000/svg" xmlns:xlink="http://www.w3.org/1999/xlink" width="11px" height="11px" viewBox="0 0 11 11" version="1.1">
<g id="surface1">
<path style=" stroke:none;fill-rule:nonzero;fill:rgb(0%,0%,0%);fill-opacity:1;" d="M 6.386719 3.332031 L 6.386719 0.0273438 L 4.921875 0.0273438 L 4.921875 3.332031 C 3.144531 3.675781 1.800781 5.238281 1.800781 7.117188 C 1.800781 9.246094 3.527344 10.972656 5.65625 10.972656 C 7.785156 10.972656 9.511719 9.246094 9.511719 7.117188 C 9.511719 5.238281 8.167969 3.675781 6.386719 3.332031 Z M 5.65625 9.507812 C 4.335938 9.507812 3.265625 8.4375 3.265625 7.117188 C 3.265625 5.796875 4.335938 4.730469 5.65625 4.726562 C 6.976562 4.730469 8.042969 5.796875 8.046875 7.117188 C 8.042969 8.4375 6.976562 9.507812 5.65625 9.507812 Z M 5.65625 9.507812 "/>
<path style=" stroke:none;fill-rule:nonzero;fill:rgb(0%,0%,0%);fill-opacity:1;" d="M 9.527344 1.375 C 9.527344 1.976562 9.039062 2.464844 8.4375 2.464844 C 7.835938 2.464844 7.347656 1.976562 7.347656 1.375 C 7.347656 0.773438 7.835938 0.285156 8.4375 0.285156 C 9.039062 0.285156 9.527344 0.773438 9.527344 1.375 Z M 9.527344 1.375 "/>
<path style=" stroke:none;fill-rule:nonzero;fill:rgb(0%,0%,0%);fill-opacity:1;" d="M 3.640625 1.375 C 3.640625 1.976562 3.152344 2.464844 2.550781 2.464844 C 1.945312 2.464844 1.460938 1.976562 1.460938 1.375 C 1.460938 0.773438 1.945312 0.285156 2.550781 0.285156 C 3.152344 0.285156 3.640625 0.773438 3.640625 1.375 Z M 3.640625 1.375 "/>
</g>
</svg>
