<?xml version="1.0" encoding="UTF-8"?>
<svg xmlns="http://www.w3.org/2000/svg" xmlns:xlink="http://www.w3.org/1999/xlink" width="11px" height="11px" viewBox="0 0 11 11" version="1.1">
<g id="surface1">
<path style=" stroke:none;fill-rule:nonzero;fill:rgb(0%,0%,0%);fill-opacity:1;" d="M 10.378906 8.347656 L 7.941406 8.347656 L 7.941406 9.082031 L 9.238281 9.082031 C 9.066406 9.285156 8.808594 9.480469 8.460938 9.65625 C 7.867188 9.960938 7.050781 10.175781 6.132812 10.238281 L 6.132812 2.242188 C 6.511719 2.042969 6.769531 1.648438 6.769531 1.191406 C 6.769531 0.535156 6.238281 0.00390625 5.582031 0.00390625 C 4.925781 0.00390625 4.394531 0.535156 4.394531 1.191406 C 4.394531 1.648438 4.652344 2.042969 5.027344 2.242188 L 5.027344 10.238281 C 4.113281 10.175781 3.296875 9.960938 2.699219 9.65625 C 2.355469 9.480469 2.097656 9.285156 1.921875 9.082031 L 3.058594 9.082031 L 3.058594 8.347656 L 0.621094 8.347656 L 0.847656 10.570312 L 1.582031 10.496094 L 1.5 9.710938 C 1.738281 9.945312 2.035156 10.144531 2.367188 10.316406 C 3.214844 10.742188 4.339844 10.996094 5.582031 10.996094 C 6.820312 10.996094 7.949219 10.742188 8.792969 10.316406 C 9.046875 10.1875 9.28125 10.039062 9.484375 9.871094 L 9.417969 10.496094 L 10.152344 10.574219 L 10.152344 10.570312 Z M 10.378906 8.347656 "/>
</g>
</svg>
