<?xml version="1.0" encoding="UTF-8"?>
<svg xmlns="http://www.w3.org/2000/svg" xmlns:xlink="http://www.w3.org/1999/xlink" width="11px" height="11px" viewBox="0 0 11 11" version="1.1">
<g id="surface1">
<path style=" stroke:none;fill-rule:nonzero;fill:rgb(0%,0%,0%);fill-opacity:1;" d="M 7.625 8.691406 L 7.625 9.332031 L 8.75 9.328125 C 8.597656 9.503906 8.375 9.675781 8.074219 9.828125 C 7.542969 10.101562 6.804688 10.289062 5.980469 10.339844 L 5.980469 4.382812 L 6.832031 4.382812 L 6.832031 3.582031 L 5.980469 3.582031 L 5.980469 3.460938 L 6.832031 3.460938 L 6.832031 2.660156 L 5.980469 2.660156 L 5.980469 2.539062 C 6.46875 2.347656 6.8125 1.875 6.8125 1.320312 C 6.8125 0.59375 6.226562 0.0078125 5.5 0.0078125 C 4.777344 0.0078125 4.1875 0.59375 4.1875 1.320312 C 4.1875 1.875 4.535156 2.347656 5.019531 2.539062 L 5.019531 2.660156 L 4.167969 2.660156 L 4.167969 3.460938 L 5.019531 3.460938 L 5.019531 3.582031 L 4.167969 3.582031 L 4.167969 4.382812 L 5.019531 4.382812 L 5.019531 10.328125 C 4.253906 10.265625 3.570312 10.085938 3.066406 9.828125 C 2.765625 9.675781 2.542969 9.503906 2.390625 9.328125 L 3.378906 9.328125 L 3.378906 8.691406 L 1.261719 8.691406 L 1.457031 10.625 L 2.09375 10.558594 L 2.023438 9.878906 C 2.230469 10.078125 2.488281 10.253906 2.777344 10.398438 C 3.511719 10.773438 4.492188 10.992188 5.570312 10.992188 C 6.648438 10.992188 7.628906 10.773438 8.363281 10.398438 C 8.582031 10.289062 8.785156 10.160156 8.960938 10.015625 L 8.90625 10.558594 L 9.542969 10.625 L 9.738281 8.691406 Z M 5.5 0.648438 C 5.871094 0.648438 6.171875 0.949219 6.171875 1.320312 C 6.171875 1.691406 5.871094 1.988281 5.5 1.992188 C 5.128906 1.988281 4.828125 1.691406 4.828125 1.320312 C 4.828125 0.949219 5.128906 0.648438 5.5 0.648438 Z M 5.5 0.648438 "/>
</g>
</svg>
