<?xml version="1.0" encoding="UTF-8"?>
<svg xmlns="http://www.w3.org/2000/svg" xmlns:xlink="http://www.w3.org/1999/xlink" width="11px" height="11px" viewBox="0 0 11 11" version="1.1">
<g id="surface1">
<path style=" stroke:none;fill-rule:nonzero;fill:rgb(0%,0%,0%);fill-opacity:1;" d="M 5.5 0.015625 C 2.46875 0.015625 0.015625 2.46875 0.015625 5.5 C 0.015625 8.53125 2.46875 10.984375 5.5 10.984375 C 8.53125 10.984375 10.984375 8.53125 10.984375 5.5 C 10.984375 2.46875 8.53125 0.015625 5.5 0.015625 Z M 9.089844 3.050781 L 6.070312 3.050781 L 6.070312 1.195312 C 7.042969 1.320312 7.910156 1.765625 8.574219 2.425781 C 8.761719 2.617188 8.933594 2.828125 9.089844 3.050781 Z M 6.457031 4.191406 L 5.5 5.148438 L 4.542969 4.191406 Z M 4.929688 1.195312 L 4.929688 3.050781 L 1.910156 3.050781 C 2.0625 2.828125 2.238281 2.617188 2.425781 2.425781 C 3.089844 1.765625 3.957031 1.320312 4.929688 1.195312 Z M 1.15625 5.5 C 1.15625 5.042969 1.226562 4.605469 1.355469 4.191406 L 2.929688 4.191406 L 4.691406 5.953125 L 2.257812 8.390625 C 1.570312 7.621094 1.15625 6.613281 1.15625 5.5 Z M 3.125 9.136719 L 5.5 6.761719 L 7.875 9.136719 C 7.191406 9.585938 6.378906 9.84375 5.5 9.84375 C 4.621094 9.84375 3.804688 9.585938 3.125 9.136719 Z M 8.742188 8.390625 L 6.308594 5.953125 L 8.070312 4.191406 L 9.644531 4.191406 C 9.773438 4.605469 9.84375 5.042969 9.84375 5.5 C 9.84375 6.613281 9.429688 7.621094 8.742188 8.390625 Z M 8.742188 8.390625 "/>
</g>
</svg>
