<?xml version="1.0" encoding="UTF-8"?>
<svg xmlns="http://www.w3.org/2000/svg" xmlns:xlink="http://www.w3.org/1999/xlink" width="11px" height="11px" viewBox="0 0 11 11" version="1.1">
<g id="surface1">
<path style=" stroke:none;fill-rule:nonzero;fill:rgb(0%,0%,0%);fill-opacity:1;" d="M 10.992188 8.589844 L 9.507812 8.589844 L 9.507812 2.410156 L 10.992188 2.410156 L 10.992188 1.492188 L 9.507812 1.492188 L 9.507812 0.00390625 L 8.589844 0.00390625 L 8.589844 1.492188 L 2.40625 1.492188 L 2.40625 0.00390625 L 1.488281 0.00390625 L 1.488281 1.492188 L 0.00390625 1.492188 L 0.00390625 2.410156 L 1.488281 2.410156 L 1.488281 8.589844 L 0.00390625 8.589844 L 0.00390625 9.507812 L 1.488281 9.507812 L 1.488281 10.992188 L 2.40625 10.992188 L 2.40625 9.507812 L 8.589844 9.507812 L 8.589844 10.992188 L 9.507812 10.992188 L 9.507812 9.507812 L 10.992188 9.507812 Z M 2.40625 8.589844 L 2.40625 2.410156 L 8.589844 2.410156 L 8.589844 8.589844 Z M 2.40625 8.589844 "/>
</g>
</svg>
