<?xml version="1.0" encoding="utf-8"?>
<svg version="1.0" xmlns="http://www.w3.org/2000/svg" xmlns:xlink="http://www.w3.org/1999/xlink" x="0px" y="0px" width="580px"
	 height="580px" viewBox="0 0 580 580">
	<polygon points="534.964,233.107 534.964,129.857 467.494,80.407 494.808,38.697 436.417,0.438 411.119,39.093 371.645,10.184 
		322.304,77.83 365.212,109.167 290,224.043 214.774,109.167 257.681,77.83 208.34,10.184 168.895,39.093 143.583,0.438 
		85.191,38.697 112.506,80.407 45.036,129.857 45.036,233.107 158.331,150.385 248.278,287.75 82.26,541.301 140.653,579.562 
		290,351.472 439.346,579.562 497.739,541.301 331.721,287.764 421.669,150.385 	"/>
</svg>
